<svg width="207" height="253" viewBox="0 0 207 253" fill="none" xmlns="http://www.w3.org/2000/svg">
<path d="M45.9421 229.611C45.9421 242.452 56.3869 252.9 69.2314 252.9H183.598C196.44 252.9 206.888 242.455 206.888 229.611V69.2666C206.888 56.4249 196.44 45.9773 183.598 45.9773H180.361V183.634C180.361 207.201 161.189 226.376 137.618 226.376H45.9449L45.9421 229.611Z" fill="white"/>
<path d="M-0.000368198 183.633C-0.000368198 196.475 10.4444 206.923 23.2889 206.923H26.526H137.653C150.495 206.923 160.942 196.478 160.942 183.633V26.5236V23.2893C160.942 10.4476 150.495 0 137.653 0H23.2889C10.4472 0 -0.000368198 10.4476 -0.000368198 23.2893V183.633Z" fill="white"/>
</svg>
